<?xml version="1.0" encoding="utf-8"?>
<!-- Generator: Adobe Illustrator 19.1.0, SVG Export Plug-In . SVG Version: 6.00 Build 0)  -->
<svg version="1.1" id="Layer_3" xmlns="http://www.w3.org/2000/svg" xmlns:xlink="http://www.w3.org/1999/xlink" x="0px" y="0px"
	 viewBox="206 -206 512 512" enable-background="new 206 -206 512 512" xml:space="preserve">
<path fill="#FFFFFF" d="M462,130c-17.7,0-32,14.3-32,32c0,17.7,14.3,32,32,32c17.7,0,32-14.3,32-32C494,144.3,479.7,130,462,130z
	 M462-206C320.6-206,206-91.4,206,50c0,141.4,114.6,256,256,256S718,191.4,718,50C718-91.4,603.4-206,462-206z M597.8,185.8
	C561.5,222,513.3,242,462,242s-99.5-20-135.8-56.2C290,149.5,270,101.3,270,50s20-99.5,56.2-135.8C362.5-122,410.7-142,462-142
	s99.5,20,135.8,56.2C634-49.5,654-1.3,654,50C654,101.3,634,149.5,597.8,185.8z M459.6-85.8c-71.9,0-88.3,54.2-89.6,93h50.3
	c0.9-8.2,3.2-45.4,39.1-45.4c21.5,0,38.6,13,38.6,37.6c0,22.2-23.2,36.9-41.7,54.8c-18.5,17.8-20.9,38.3-20.9,54.2v5.6
	c4.7,0,51.7,0,51.7,0v-5.6c0-40.2,62.9-51,62.9-113.3C550-44.1,522-85.8,459.6-85.8z"/>
</svg>
