<?xml version="1.0" encoding="utf-8"?>
<!-- Generator: Adobe Illustrator 19.1.0, SVG Export Plug-In . SVG Version: 6.00 Build 0)  -->
<svg version="1.1" id="Layer_1" xmlns="http://www.w3.org/2000/svg" xmlns:xlink="http://www.w3.org/1999/xlink" x="0px" y="0px"
	 viewBox="206 -206 512 512" enable-background="new 206 -206 512 512" xml:space="preserve">
<path fill="#FFFFFF" d="M206,72.2c0,23.2,2.2,44.2,6.5,63c4.3,18.8,10.3,35.1,18,48.9c7.7,13.9,17.4,26,29.3,36.6
	c11.8,10.5,24.7,19.1,38.6,25.8c13.9,6.7,29.7,12.1,47.4,16.3c17.8,4.2,35.9,7.1,54.5,8.8c18.5,1.7,38.9,2.5,61.1,2.5
	c22.4,0,42.8-0.8,61.3-2.5c18.5-1.7,36.7-4.6,54.6-8.8s33.8-9.6,47.7-16.3c13.9-6.7,26.9-15.3,38.8-25.8
	c11.9-10.5,21.8-22.7,29.5-36.6c7.8-13.9,13.8-30.2,18.2-48.9c4.3-18.8,6.5-39.8,6.5-63c0-41.4-13.9-77.2-41.6-107.4
	c1.5-4,2.9-8.6,4.1-13.6c1.3-5.1,2.4-12.4,3.5-21.8c1.1-9.4,0.7-20.3-1.3-32.7c-1.9-12.4-5.5-25-10.6-37.8l-3.8-0.8
	c-2.7-0.5-7.1-0.4-13.1,0.4c-6.1,0.8-13.2,2.3-21.3,4.5c-8.1,2.3-18.5,6.6-31.3,13s-26.2,14.5-40.4,24.2c-24.4-6.7-57.8-10-100.4-10
	c-42.4,0-75.8,3.3-100.1,10c-14.2-9.7-27.8-17.7-40.7-24.2s-23.2-10.8-30.9-13c-7.7-2.3-14.9-3.7-21.5-4.4
	c-6.7-0.7-10.9-0.9-12.6-0.6c-1.8,0.2-3.1,0.5-4.1,0.9c-5.2,12.9-8.7,25.5-10.6,37.8c-1.9,12.4-2.3,23.2-1.3,32.7
	c1.1,9.4,2.3,16.7,3.5,21.8c1.3,5.1,2.6,9.6,4.1,13.6C219.9-5,206,30.8,206,72.2z M268.8,135c0-24,10.9-46.1,32.8-66.1
	c6.5-6,14.1-10.6,22.8-13.6c8.7-3.1,18.5-4.8,29.4-5.3c10.9-0.4,21.4-0.3,31.4,0.3c10,0.6,22.4,1.4,37.1,2.4
	c14.7,1,27.4,1.5,38.1,1.5c10.7,0,23.4-0.5,38.1-1.5c14.7-1,27-1.8,37.1-2.4c10-0.6,20.5-0.7,31.4-0.3c10.9,0.4,20.7,2.2,29.4,5.3
	c8.7,3.1,16.3,7.6,22.8,13.6c21.9,19.7,32.8,41.7,32.8,66.1c0,14.4-1.8,27.1-5.4,38.2c-3.6,11.1-8.2,20.4-13.8,27.9
	c-5.6,7.5-13.4,13.9-23.3,19.2c-9.9,5.3-19.6,9.3-29,12.1c-9.4,2.8-21.5,5-36.3,6.6c-14.8,1.6-28,2.5-39.6,2.9
	c-11.6,0.3-26.3,0.5-44.2,0.5s-32.6-0.2-44.2-0.5c-11.6-0.3-24.8-1.3-39.6-2.9c-14.8-1.6-26.9-3.8-36.3-6.6
	c-9.4-2.8-19.1-6.9-29-12.1s-17.7-11.6-23.3-19.2c-5.6-7.5-10.2-16.8-13.8-27.9C270.6,162.1,268.8,149.4,268.8,135z M526,130
	c0,26.5,14.3,48,32,48s32-21.5,32-48s-14.3-48-32-48S526,103.5,526,130z M334,130c0,26.5,14.3,48,32,48s32-21.5,32-48
	s-14.3-48-32-48S334,103.5,334,130z"/>
</svg>
