<?xml version="1.0" encoding="utf-8"?>
<!-- Generator: Adobe Illustrator 19.1.0, SVG Export Plug-In . SVG Version: 6.00 Build 0)  -->
<svg version="1.1" id="Layer_1" xmlns="http://www.w3.org/2000/svg" xmlns:xlink="http://www.w3.org/1999/xlink" x="0px" y="0px"
	 viewBox="206 -206 512 512" enable-background="new 206 -206 512 512" xml:space="preserve">
<path fill="#FFFFFF" d="M462-206C320.6-206,206-91.4,206,50s114.6,256,256,256S718,191.4,718,50S603.4-206,462-206z M326.2,185.8
	C290,149.5,270,101.3,270,50c0-18.2,2.5-35.9,7.4-52.9l16.2,42.7l90.2,71.2l15,3.4l-22.1,35.4l32.7,84.9
	C378.3,225.9,349.8,209.3,326.2,185.8z M616.3,164.4c-5.6,7.5-11.8,14.7-18.5,21.4c-34.7,34.7-80.4,54.5-129.3,56.1l53.7-42.4
	l6.9-36.2l-135.7-63.1L385,85.6L374,78l-5.7-25.1l-18.6,7.6l6.2-24.4l22.2-2.9l19.8,22l6.5-38l24.3-33.6l25.9-9.2l2.6-17.5l-5.6-6
	l24.5-4l2.8-19.2l-22.2-22.9l-19,2.5l-23.5-11.7l-12.8,40.1l-28.3-17.2l41.1-43l-52.6,10.7c26.6-16.3,56.7-25.9,88.3-27.8l59.6,52.4
	l21.9,5.9l4.6-16.9l22.5-15.7c14.1,8.2,27.2,18.3,39,30.1c5.9,5.9,11.4,12.2,16.5,18.7L596.6-37l-17.1,3.4l21,132.4l23.4,24.5
	L616.3,164.4z M617.5-7.9l7.9-10.6l9,10.9L617.5-7.9z"/>
</svg>
