<?xml version="1.0" encoding="utf-8"?>
<!-- Generator: Adobe Illustrator 19.1.0, SVG Export Plug-In . SVG Version: 6.00 Build 0)  -->
<svg version="1.1" id="Layer_1" xmlns="http://www.w3.org/2000/svg" xmlns:xlink="http://www.w3.org/1999/xlink" x="0px" y="0px"
	 viewBox="0 0 852.8 746.1" style="enable-background:new 0 0 852.8 746.1;" xml:space="preserve">
<style type="text/css">
	.st0{fill:#13B6E2;}
	.st1{fill:#FFFFFF;}
	.st2{fill:#012D62;}
	.st3{fill:#14ACD5;}
	.st4{fill:#E6EBEF;}
</style>
<g>
	<circle class="st0" cx="426.4" cy="292.9" r="156.4"/>
	<path class="st1" d="M302.4,245.9c0.2,0.8,0.7,2.1,0.4,2.3c-1.5,1.1,0,2.2-0.6,3.4c1.4-0.8-0.4-2.8,1.7-2.7c0-1.1,0-2,0-3.1
		C303.3,245.8,302.8,245.9,302.4,245.9c0-0.8,0.1-1.5,0.2-2.3c0.1-1.1-0.5-1.4-1.5-1.4c-0.3,0-0.5,0-0.8,0c0.1-1.8,0.6-3.3,1.6-4.8
		c0.9-1.4,1.1-3.2,1.6-4.7c-1.6-1-2,0.1-2.4,1.2c-0.5,1.4-1,2.8-1.5,4.2c-0.3,1-1.1,2.2-0.8,3c0.4,1,0,1.8,0,2.7
		c0,0.1,0.1,0.2,0.2,0.2c0.7,0,1.3,0.1,1.8,0.5C301.3,244.8,301.8,245.4,302.4,245.9z M281.8,298.8c0,0.7-0.1,1.4-0.1,2.1
		c0,0.9,1.2,2.1,2,2.1c0.6,0,1.3,0.1,1.9,0.2c0.5,0,1.1,0.1,1.6,0.1c0.7,0,1.5,0,2.4,0c0.2-0.2,0.5-0.6,1-1.2
		c-0.9-0.4-1.6-0.6-2.4-1c-0.3-0.1-0.6-0.4-0.9-0.6c-0.6-0.5-1.1-1.1-1.7-1.7c0,0.2-0.1,0.3-0.1,0.5c-0.5,0.4-1,0.8-1.5,1.2
		c0-0.2,0-0.4,0-0.5C283.3,299.6,282.5,299.3,281.8,298.8c-0.9-3.3-0.2-6.9-1.6-10.3c-0.7-1.6-0.6-3.5-0.9-5.2
		c-0.4-2.4-1-4.8-1.4-7.2c-0.2-0.9-0.1-1.9-0.2-2.8c-0.1,0-0.3,0-0.4,0c0.2,8.7-0.1,17.5,3.5,25.9
		C281.3,299.1,281.6,299,281.8,298.8z M367.5,161c0-0.5,0-1,0-1.7c-1.1,0.3-2,0.6-3,0.9c-0.2-0.4-0.3-0.8-0.4-1.2
		c2.1-1,4.2-2.1,6.4-2.9c3-1.2,6.1-2.3,9.3-3.2c2-0.6,4.2-0.7,6.3-1c0.3,0,0.8-0.1,0.9,0c0.3,1.3,1.2,0.5,1.8,0.5
		c1.1,0,2.1-0.6,3.1-1.2c1.8-1,3.9-1.5,5.9-2c0.4-0.1,1,0.3,1.5,0.5c0,0.1,0,0.3,0,0.4c1.8-0.7,3.7-1.3,5.5-2
		c0.1,0.2,0.1,0.3,0.2,0.4c-1.1,0.5-2.1,1-3.2,1.4c-3.6,1.4-7.3,2.8-10.9,4.3c-3.1,1.4-4,4.3-4.6,7.4c1.3-0.6,2.4-1.3,3.6-2
		c0.4-0.3,0.9-0.5,1.4-0.7c0.8-0.4,1.6-0.8,2.4-1.3c1.5-0.8,3.2-1.3,4.5-2.7c0.6-0.6,1.5-0.9,2.5-1.5c-0.7-0.4-1-0.6-1.5-0.8
		c1.4-0.7,2.6-1.9,3.8-1.8c2.7,0,5.4-1.5,8.1-0.5c0.1,0,0.3-0.2,0.5-0.2c2.1-0.6,4.1-1.3,6.2-1.7c1.8-0.4,3.6-0.5,5.5-0.8
		c-0.5-0.5-0.9-1-1.4-1.5c0.8-0.2,1.6-0.1,2.1-0.5c1.5-1.1,3.2-0.5,4.5,0c2.3,0.9,4.1,0.2,6-0.9c-1.4-0.3-2.9-0.4-4.4-0.5
		c-0.2,0-0.4,0.1-0.5,0c-2.1-0.5-4.2-1.3-6.3-1.6c-2.7-0.3-5.5-1-8.1,0.4c-0.1,0.1-0.3,0-0.4,0c-2.2-0.1-4.3-0.1-6.5-0.2
		c-1.4-0.1-2.7-0.3-4.1-0.5c-0.9-0.1-1.7-0.2-2.6-0.3c-0.8-0.1-1.7-0.4-2.4-0.3c-2.4,0.4-4.9,1.1-7.3,1.5c-1.3,0.2-2.7,0.1-4,0.5
		c-5.6,1.8-11.2,3.6-16.7,5.7c-9.6,3.7-18.8,9-27.4,14.7c-8.2,5.5-15.2,11.7-22.1,18.7c-8,8-15.2,16.2-21.2,25.8
		c-7.3,11.7-13.6,24-17.4,37.2c-1,3.6-1.8,7.3-2.6,11c0.1,0,0.2,0,0.3,0.1c0.4-1.4,0.8-2.8,1.1-4.2c0.1,0,0.3,0,0.4,0
		c0,2.8,0,5.6,0,8.5c1.1-2.3,2.2-4.6,3.2-7c1.6-3.9,2.6-8,2.6-12.2c0-4.9,1.5-9.1,4.3-12.9c0.2-0.3,0.6-0.4,1.1-0.7
		c-0.3,1.1-0.5,1.7-0.6,2.2c1.5-1.7,2.9-3.8,4.7-5.2c3.2-2.4,5.8-5.3,8.2-8.4c1.6-2.2,3-4.5,4.8-6.5c1.4-1.7,3-3.1,3.1-5.5
		c0-0.3,0.3-0.5,0.4-0.8c0.6-1.1,1.3-2.3,1.8-3.5c0.8-1.9,0.8-4.1,2.2-5.8c0.4-0.5,1-0.9,1.6-1.3c1.3-1,2.5-2,3.8-3
		c-1.5-1.4-2,0.8-3.5,0.6c0.7-1.2,1.1-2.3,1.9-3.1c1.3-1.2,2.9-2.2,4.4-3.3c0.4-0.3,0.9-0.5,1.3-0.8c0.1,0.1,0.1,0.2,0.2,0.3
		c-0.8,0.8-1.6,1.7-2.4,2.5c1.5-0.2,2.4-1.9,4.4-1.3c-1.1,1.2-1.9,2.1-2.9,3.1c0.6,0,0.9,0.1,1.5,0.1c-1.4,2.2-2.7,4.2-4,6.2
		c0.1,0.1,0.2,0.2,0.3,0.3c0.8-0.5,1.6-1,2.4-1.4c3-1.4,4.3-4.2,4.6-7.2c0.2-1.4,0.8-2.1,1.8-2.8c0.6-0.3,1.2-0.6,1.7-1
		c1.2-1,2.3-2.3,3.6-3.1c1.5-0.9,2.8-2.5,5-2.1c0.9,0.1,2.2-0.9,3.1-1.6c5.8-4.1,12.2-7.5,17.1-12.8c0.6-0.7,1.6-1,2.4-1.5
		c-1.1,1.4-2.2,2.8-3.3,4.2c-1.2,1.4-2.4,2.9-3.6,4.3c0.6,0,1.2-0.5,1.4-0.3c1.2,0.6,1.1-0.4,1.2-0.9c0.3-2,2-3.4,3.8-3.2
		c1.3-2.1,2.6-4.2,4-6.5C369.2,160,368.4,160.5,367.5,161z M332.6,300.9c-0.3,0.5-0.5,0.7-0.5,0.8c-0.1,2.6-0.6,5.4-0.1,7.9
		c0.5,2.9,0.5,5.6,0.2,8.4c-0.1,1.2-1,1.7-2.1,1.2c-0.7-0.3-1.3-0.9-2.1-1.4c-2.1-1.2-4.2-2.4-6.2-3.7c-0.4-0.2-0.8-0.9-0.7-1.2
		c0.6-1.4,0.1-3.1,1-4.5c0.6-0.9,0.9-2.1-0.5-2.8c-2.2,1.2-4.3,1.1-6.3-0.6c-0.4-0.3-1-0.3-1.6-0.4c0.5,0.9,0.9,1.5,1.1,2.1
		c0,0.2-0.7,0.8-1.2,0.9c-1.4,0.4-2.1,1.2-2,2.7c0,0.3,0,0.6,0,0.8c-0.2,1.3-0.4,2.5-0.7,3.9c-1.9,0.9-2.2-1.8-4-2.1
		c-2.6,2.5-2.7,6-2.7,9.6c-0.4-0.5-0.7-1-1-1.4c-0.3,0.9-0.3,1.8-0.3,2.7c0,1.6,0.1,3.3,0,4.9c0,0.5-0.4,1.1-0.8,1.5
		c-1.9,1.7-3.5,3.5-3.9,6.1c-0.1,0.8-0.4,1.7-0.2,2.4c0.8,2.4,1.2,5.1,3.1,7c0.1,0.2,0.2,0.4,0.2,0.6c0.2,0.7,0.2,1.6,0.6,2.1
		c2.5,3.7,5.1,7.2,7.6,10.9c0.9,1.4,1.7,2.9,2.3,4.5c0.4,1.1,2.3,3,3.5,2.9c0.4-0.1,0.8-0.5,1-0.8c0.2-0.4,0.4-0.9,0.4-1.4
		c-0.1-1.1,0.7-1.3,1.5-1.4c0.8-0.2,1.6-0.3,2.4-0.5c-0.1-0.6-0.2-1-0.3-1.4c-0.4-1.4,0.7-2.2,1.4-3c0.8-0.8,1.8-1.3,2.8-1.7
		c1-0.5,2.1-0.8,3.2-1c0.6-0.1,1.2,0.6,1.8,0.7c3.1,0.2,4.6,2.5,6.5,4.4c0.5,0.5,1,1,1.5,1.5c0.4-1.6,0.8-3,1.1-4.5
		c0.2,0,0.3,0,0.5,0c0.3,1.6,0.5,3.3,0.9,5.4c0.4-0.9,0.7-1.5,1.1-2.2c0.4,0.9,0.8,1.6,1.1,2.5c1.7-0.1,2.7,1.2,3.7,2.5
		c0.7,0.9,1.5,2,2.6,2.4c1.7,0.7,3.5,0.8,5.2,1.2c0.4-0.7,0.8-1.4,1-1.6c1.4,0.7,2.5,1.2,3.8,1.8c0.8-1.9,1.7-3.3,3.8-3.4
		c0.2,0,0.7-1,0.6-1.3c-0.8-2.6-0.3-5.1-0.2-7.7c0-0.8,0.3-1.6,0.5-2.4c0.3-0.9,0.9-1.8,0.9-2.7c0-2.5,0-5-0.6-7.4
		c-0.6-2.5-1.5-5-2.7-7.1c-1-1.7-2.9-3-4.3-4.5c-0.7-0.7-1.3-1.5-1.7-2.3c-0.6-1.3-1.6-1.6-2.8-1.5c-0.1-0.2-0.3-0.5-0.4-0.8
		c-0.8-1.3-1.4-2.8-2.4-3.8c-1.1-1-2.5-1.8-3.9-2.4c-1.5-0.7-2.3-1.7-2.6-3.3c-0.1-0.9-0.6-1.7-1-2.5c-0.6-1.4-1.2-2.9-1.9-4.3
		c-0.5-0.9-1.2-1.7-1.8-2.5c-0.6,0.4-0.9,0.7-1.3,0.9C335.2,307.4,334,304.4,332.6,300.9z M459,149.6c0.1,0.1,0.3,0.2,0.4,0.3
		c0.1,1.5,1,2.4,2.1,1.6c2.3-1.5,4.3-0.5,6.4-0.1c0.1,0,0.3,0,0.4,0.1c4.3,1.1,8.8,1.8,13,3.4c4.2,1.7,8.1,4.2,12.1,6.4
		c1.7,1,3.4,2.1,5,3.3c0.8,0.5,1.2,1.6,2,1.9c5,2,9,5.2,12.3,9.4c2,2.6,3.9,5.3,6.1,7.8c2.5,2.8,5.3,5.3,7.9,7.9
		c1.4,1.4,2.8,3.1,4.4,4.1c2.1,1.3,4,2.7,5.6,4.6c2.3,2.9,4.7,5.7,7,8.5c0.5,0.6,1.2,1.4,1.2,2c-0.1,1.1,0.6,1.6,1.1,2.2
		c1.2,1.3,2.5,2.5,3.6,3.9c1.7,2.2,3.2,4.5,4.8,6.8c0.1-0.1,0.2-0.1,0.3-0.2c-4.1-7.3-9.4-13.7-14.4-20.5c0.8,0.3,1.6,0.7,2.1,1.3
		c2.2,2.7,4.4,5.4,6.4,8.2c2.5,3.3,5,6.7,7.3,10.2c1.5,2.4,2.7,5,3.9,7.5c0.7,1.3,1.2,2.7,1.9,4c1.4,2.3,3,4.5,4.4,6.7
		c0.9,1.4,1.8,2.8,2.8,4.4c0.1-0.6,0.3-1,0.2-1.3c-0.4-1.3-0.7-2.7-1.2-4c-1.9-4.3-3.9-8.6-5.9-12.9c-2.2-4.9-4.1-9.9-6.7-14.5
		c-5-8.8-11.1-16.8-17.8-24.3c-10.8-12-23.2-21.9-37.1-29.9c-8-4.6-16.3-8.4-25-11.4c-4.5-1.6-9.2-2.7-14.1-2.7
		c-4.5-0.1-9.1-1.1-13.6-1.9c-3.6-0.7-7.1-0.6-10.5,0.8c1.6,0.5,3.3,0.9,4.9,1.4c0,0.1,0,0.1,0,0.2c-1.6,0-3.3,0-4.9,0
		c1.9,1.5,4,1.2,6.1,1.3c0.7,0,1.4,0.3,2.4,0.5c-1.8,1-4-0.2-4.9,2.1c1,0.5,1.8,1,2.8,1.4c1.4,0.6,3.2-0.2,4.2,1.6c0,0,0.2,0,0.3,0
		c1.8,0,3.6,0,5.7,0c-0.2,0.7-0.1,1.4-0.4,1.6c-0.9,0.6-2,1.1-3,1.4c-1.4,0.5-2.8,0.9-4.3,1.3c0,0.1,0.1,0.3,0.1,0.4
		c4.3-0.7,8.6-1.4,12.2-4.3c-0.4-0.3-0.7-0.5-0.7-0.6C458.3,150.8,458.6,150.2,459,149.6z M342.3,289.4c0.1-0.2,0.2-0.3,0.3-0.5
		c-0.7-0.4-1.3-0.9-2-1.3c-0.8-0.5-2-0.7-2.3-1.3c-0.9-2-2.5-3.1-4.5-3.8c-3.4-1.1-6.9-2.3-10.3-3.4c-1.2-0.4-2.4-0.4-3.3,0.6
		c-1,1.2-1.9,2.6-2.9,3.9c-1.3-0.4-1.9-1.4-2-2.9c0-0.7-0.2-1.5-0.3-2.2c-0.2-1-2.4-2-3.3-1.4c-0.9,0.6-1.8,1.2-2.9,2
		c1.8,1.1,3,3,5.5,2.6c-0.9,0.5-1.9,1-2.9,1.5c0.5,0.6,1,0.9,1.3,1.4c0.3,0.5,0.3,1.1,0.6,2.1c0.6-0.8,0.9-1.3,1.2-1.8
		c1,0.7,1.9,1.4,2.8,1.8c1.3,0.6,2.7,0.8,4,1.4c1.2,0.5,2.9,3.8,2.6,5.1c0,0.2-0.3,0.4-0.4,0.6c-0.4,0.8-0.8,1.6-1.4,2.6
		c0.7,0,0.9,0,1.1-0.1c0.6-0.2,1.1-0.6,1.7-0.7c1.1-0.4,2.2-0.2,2.9,0.8c1.2,1.7,3,1,4.5,1.1c0.6,0,1.5-0.7,1.1-1.9
		c-0.1-0.4,0.2-1.2,0.5-1.5c2-1.8,4.1-1.3,5.7,0.9c1.1,1.5,2.6,2.8,4.1,3.7c1.2,0.7,2.8,0.7,4.3,0.9c0.4,0.1,0.9-0.3,1.3-0.5
		c0,0-0.1-0.5-0.2-0.6c-0.7-0.5-1.4-1-2.1-1.5c-0.5-0.4-1-0.9-1.6-1.2c-0.9-0.4-4.6-4.6-4.9-5.5c0-0.1,0.1-0.2,0.1-0.3
		C341.3,289.7,341.8,289.5,342.3,289.4z M291.5,261.9c-0.9,2-1.4,3.6-2.4,5c-1.6,2.5-1.6,5.8-3.9,8c-0.8,0.7,0.3,2.7-1.7,2.9
		c-0.1,0-0.2,0.4-0.2,0.7c-0.1,0.8-0.3,1.6-0.3,2.4c0.3,3,0.7,6,1.1,8.8c0.7,0.2,1.3,0.4,2,0.7c0.1-0.1,0.3-0.5,0.6-0.9
		c0.7,0.6,1.3,1.1,2.2,1.8c0.3-0.9,0.8-1.8,0.9-2.8c0.2-1.6,0.2-3.3,0.4-4.9c0.1-1.1,0.6-2.2,0.7-3.3c0.1-1.3,0.1-2.6,1.7-3.2
		c-0.4-0.7-0.8-1.3-1-1.9c-0.2-0.6,0.1-1.5-0.2-2c-0.7-1.5,0-2.7,0.4-4c0.5-1.5,2.9-3,0.2-4.7c-0.1-0.1,0-0.5-0.1-0.7
		C291.9,263.2,291.7,262.8,291.5,261.9z M335.6,195.1c0.5-0.2,0.7-0.3,0.8-0.4c1.6-1.4,3.4-2.3,5.6-2.8c1.5-0.3,3.1-1.5,4.1-2.8
		c1.5-1.9,2.5-4.2,4.5-5.7c1.4-1.1,2-2.6,2.2-4.4c-1.8,0.2-2.8,1.2-3.5,2.6c-1.5,3-4.4,4.4-7,6.1c-1.6-0.7-2,0.9-2.8,1.6
		c-0.9,0.8-1.6,1.6-3,1.5c-1,0-2.2,0.4-3.1,1c-2.2,1.5-4.3,3.1-6.3,4.7c-0.3,0.2-0.6,0.9-0.5,1.1c0.6,1-0.1,1.5-0.5,2.2
		c-0.1,0.3-0.2,0.6-0.3,1c2.2-1,4.2-4.1,4-5.8c0.6-0.1,1.3-0.3,2-0.4c-0.3,0.8-1.6,1.2-1.1,2c1.1-0.5,2.1-0.7,2.8-1.2
		c0.6-0.4,1.9-0.7,1-2c0,0,0.1-0.2,0.1-0.3c0.4-0.1,0.8-0.2,1.2-0.3C335.7,193.8,335.6,194.3,335.6,195.1z M407.8,370
		c-0.5,0.6-0.9,1.1-1.2,1.7c-1,2.6-2.6,4.7-5.1,6.1c-1.1,0.6-2,1.7-2.7,2.8c-0.8,1.3-0.5,1.7,1,1.9c0.4,0,0.8,0.1,1.2,0.2
		c2.7,0.9,4.4,0.2,5-2.6c0.4-1.8,1.1-2.9,2.6-2.9c0.3-0.8,0.4-1.3,0.7-1.8c0.5-0.8,1.2-1.5,1.5-2.4c0.2-0.6-0.1-1.3-0.2-2.2
		c-0.8,0.4-1.2,0.6-1.6,0.8C408.6,371.3,408.3,370.8,407.8,370z M413.1,372.5c1.7-1,2.6-2.6,3-4.5c0.1-0.4,0.6-0.7,1-1.1
		c0.4-0.4,1.1-0.6,1.3-1.1c0.3-0.6,0.4-1.4,0.5-2.2c-1.4,0.1-2.6,0.2-3.9,0.3c-1.8,0.1-1.3-2.3-2.7-2.7c-0.1,0.4-0.2,0.7-0.3,1.3
		c-1.5-2.7-2.7-5.3-5.9-5.9c0.7,1.1,1.6,2.2,2.4,3.2c0.7,0.9,1.5,1.8,2.1,2.8c0.8,1.4,0.5,3-0.6,4.1c-0.7,0.6-0.5,1,0.2,1.3
		c2.3,1.2,2.3,1.2,1.6,3.6C412.3,372,412.7,372.2,413.1,372.5z M294.9,282.2c-0.8-0.9-1.4-2.3-0.7-3.4c0.6-0.8,2.1-1.3,3.3-1.4
		c2-0.3,3.2-1.5,3-3.9c-1.1,2.9-3.1,3-5.7,2.2c-0.4,1.1-0.9,2.2-1.1,3.4c-0.4,2.5-0.7,5-1.1,7.6c0,0.4,0,0.9,0.2,1.1
		c1.2,1.5,1,3.2,0.9,5c0,0.4,0.3,0.7,0.5,1.1c0.2-0.4,0.6-0.7,0.6-1.1c-0.1-1.7-0.3-3.4-0.4-5.1c0-0.5,0.2-1,0.3-1.7
		c0.6,2,1.1,3.5,1.6,5.2c0.4-0.3,0.7-0.5,1.2-0.8c0,0.9,0,1.7,0,2.8c1.3-1.4,0.8-2.5,0.4-3.5c-0.7-1.8-1.4-3.7-1.9-5.6
		c-0.1-0.3,0.2-0.8,0.4-1.1c0.5-1,1.1-1.9,1.7-2.8c-0.1-0.1-0.2-0.2-0.3-0.3C296.9,280.6,295.9,281.4,294.9,282.2z M299.7,256.2
		c-1.9,2-2.4,3.1-2,4.1c0.7-0.7,1.5-1.4,2.6-2.4c-0.1,1,0,1.5-0.1,2c-0.4,1.7,0,2.5,1.8,3.2c0-0.7,0-1.4,0.1-2.1
		c0.1-0.6,0.2-1.2,0.3-1.8c0.1,0,0.2,0,0.3,0.1c0.1,0.4,0.2,0.8,0.3,1.3c1.2-2.5,1.1-7-0.1-7.5C302.6,255.1,300.8,256.9,299.7,256.2
		z M357.7,373.5c-0.1,0.2-0.2,0.3-0.3,0.5c1.6,1.7,3.1,3.4,4.7,5c0.4,0.4,1.1,0.5,1.8-0.3c0.9-1,0.5-2,0.4-2.9
		c-0.2-2.2-1.4-2.7-3.4-1.9c-0.4,0.2-0.9,0.1-1.4,0C359,373.8,358.4,373.6,357.7,373.5z M351.4,178.5c0.1,0.2,0.2,0.3,0.3,0.5
		c0.7-0.4,1.5-0.8,2.1-1.3c0.7-0.6,1.2-1.1,2.1-0.4c0.2,0.2,0.9-0.1,1.3-0.3c1.2-0.5,2.3-1.1,3.4-1.7c0.6-0.4,1-1,1.6-1.4
		c-2.2,0.4-2.6,0.2-3.5-1.9c-0.9,1-1.7,1.9-2.6,2.8c-0.4,0.4-0.8,0.9-1.3,0.9C353,175.8,352.1,177.1,351.4,178.5z M343.5,286.4
		c0.7,1.5,3.3,2.3,4.7,1.4c0.9-0.5,1.5-1.5,2.4-1.9c1.2-0.5,1.3-1.4,1.5-2.4c0.2-1.3-0.4-1.6-1.7-1c0.1,1.6-1.8,3.8-2.8,3.4
		c-0.1-0.3-0.3-0.7-0.6-1.4C346.7,287.3,344.8,286,343.5,286.4z M382.6,322c1.8,2.5,4,4.1,6.6,5.2c0.2,0.1,0.7-0.2,1.1-0.3
		C388.4,324.8,384.3,322.1,382.6,322z M305.2,298.7c-3.5,1.1-5.2,3.5-4.6,6.3C302.2,302.9,303.6,300.9,305.2,298.7z M304.8,271.3
		c-1,2.9-0.7,5.3,0.4,7.6c0.1-0.4-0.1-0.7-0.1-1c0-0.6,0.1-1.2,0.2-1.8c0.2-0.6,0.7-1.1,0.6-1.6
		C305.8,273.5,305.3,272.6,304.8,271.3z M299.7,250.9c0.2,1.5-1.7,2.5-0.2,4.1c0.7-1.5,1.3-3,2-4.5c-1.8,0.1-1.1-0.9-1.1-1.6
		c-0.4-0.1-0.8-0.2-1.2-0.3c-0.2,0.9-0.4,1.8-0.6,2.9C299.1,251.3,299.4,251.1,299.7,250.9z M308.7,216.6c-2.8,1.9-4.2,4.6-4,7.1
		C306.1,221.2,307.4,218.9,308.7,216.6z M309.4,285.5c-0.3-1.4-1.2-1.9-2.9-1.6c-1,0.2-1.6,0.6-1.3,1.6
		C306.6,285.5,307.9,285.5,309.4,285.5z M416.5,313.9c-0.1,0.1-0.2,0.2-0.3,0.3c-0.9-0.2-1.8-0.1-1.8,1c0,0.4,1,0.9,1.6,1
		c0.8,0.1,1.7-0.2,1.6-1.2C417.6,314.6,416.9,314.3,416.5,313.9z M348.5,278.5c1.9,1.3,4.2,2.3,5,4.9c0.1-0.8,0.2-1.6-0.2-2
		C352,280,350.6,278.5,348.5,278.5z M357.3,284.6c0.1,1.5,0.9,2.8,2.2,3.8c0.2,0.2,0.7,0,1,0c-0.1-0.3,0-0.8-0.2-1
		C359.3,286.4,358.2,285.5,357.3,284.6z M295.2,301.7c0.1,0.1,0.3,0.3,0.4,0.4c2.3-0.1,3.4-0.8,3.1-2.3c-0.7,0.6-1.2,1.6-2.4,0.9
		C296.2,300.5,295.6,301.3,295.2,301.7z M290.3,236c0.2,0.1,0.3,0.2,0.5,0.3c0.8-1.5,1.5-3,2.3-4.4c-0.1-0.1-0.3-0.1-0.4-0.2
		C291.2,232.7,290.6,234.3,290.3,236z M417.9,312.9c2.7-0.5,3.3-0.9,3.3-2.2C417.9,311.7,417.6,311.9,417.9,312.9z M292.1,303.7
		c0.7-0.5,1.3-0.8,1.8-1.3c0.2-0.1,0.3-0.5,0.3-0.7c-0.1-0.2-0.4-0.4-0.6-0.4C292.5,301.1,291.9,302,292.1,303.7z M369.9,292.3
		c0.1-0.2,0.3-0.4,0.4-0.6c-1.3-0.8-2.6-1.6-3.9-2.4c-0.1,0.2-0.2,0.4-0.3,0.5C367.4,290.7,368.7,291.5,369.9,292.3z M370,294.2
		c-0.2,1.6,0.6,1.9,2.6,1.1C371.8,295,371,294.6,370,294.2z M292.7,257.2c0.1,0.1,0.2,0.1,0.3,0.2c1-2,2.1-4,3.1-6.1
		c-0.1-0.1-0.2-0.1-0.4-0.2C294.7,253.1,293.7,255.2,292.7,257.2z M374.2,295.3c0.1-0.1,0.2-0.1,0.3-0.2c-0.7-1.1-1.4-2.3-2.1-3.4
		c-0.1,0.1-0.3,0.2-0.4,0.2C372.1,293.4,373.3,294.3,374.2,295.3z M389.4,310.2c-0.5-1-0.9-1.7-1.3-2.5c-0.1,0.1-0.3,0.2-0.4,0.2
		C387.8,308.9,387.2,310.2,389.4,310.2z M296.5,305.8c0.2-0.1,0.4-0.3,0.5-0.4c-0.4-0.5-0.7-1.1-1.2-1.5c-0.2-0.1-0.7,0.2-1.3,0.5
		C295.3,304.9,295.9,305.3,296.5,305.8z M461,153.8c0-0.2,0-0.4,0-0.6c-0.8,0-1.7,0-2.5,0c0,0.2,0,0.4,0,0.6
		C459.4,153.8,460.2,153.8,461,153.8z M315.7,292.4c0.2,0,0.4,0,0.7,0c0.1-0.9,0.1-1.9,0.2-2.8c-0.2,0-0.4,0-0.7,0
		C315.8,290.6,315.8,291.5,315.7,292.4z M298.3,247c0.1,0,0.2,0.1,0.3,0.1c0.2-0.5,0.5-1.1,0.5-1.6c0-0.3-0.3-0.6-0.5-0.8
		c-0.2,0.3-0.5,0.5-0.5,0.8C298,246,298.2,246.5,298.3,247z"/>
	<g>
		<path class="st2" d="M126.5,570.5c0,7.1-1.8,12.5-5.3,16.3c-3.5,3.8-8.6,5.7-15.1,5.7c-6.6,0-11.6-1.9-15.1-5.7
			c-3.5-3.8-5.3-9.3-5.3-16.4s1.8-12.6,5.3-16.3c3.5-3.8,8.6-5.6,15.2-5.6c6.6,0,11.6,1.9,15.1,5.7
			C124.7,558,126.5,563.4,126.5,570.5z M95.2,570.5c0,4.8,0.9,8.4,2.7,10.8c1.8,2.4,4.5,3.6,8.1,3.6c7.2,0,10.9-4.8,10.9-14.4
			c0-9.6-3.6-14.5-10.8-14.5c-3.6,0-6.3,1.2-8.2,3.6C96.1,562.1,95.2,565.7,95.2,570.5z"/>
		<path class="st2" d="M151.7,592.6c-3.8,0-6.9-1.4-9.1-4.2h-0.5c0.3,2.7,0.5,4.3,0.5,4.7v13.3h-8.9v-47.2h7.3l1.3,4.2h0.4
			c2.1-3.2,5.2-4.9,9.3-4.9c3.9,0,6.9,1.5,9.1,4.5c2.2,3,3.3,7.1,3.3,12.5c0,3.5-0.5,6.5-1.5,9.1c-1,2.6-2.5,4.5-4.4,5.9
			C156.5,591.9,154.3,592.6,151.7,592.6z M149.1,565.8c-2.2,0-3.8,0.7-4.8,2c-1,1.4-1.5,3.6-1.6,6.7v1c0,3.5,0.5,6,1.6,7.6
			c1,1.5,2.7,2.3,5,2.3c4,0,6-3.3,6-9.9c0-3.2-0.5-5.6-1.5-7.3C152.7,566.6,151.2,565.8,149.1,565.8z"/>
		<path class="st2" d="M185.9,592.6c-5.3,0-9.4-1.5-12.4-4.4c-3-2.9-4.5-7-4.5-12.4c0-5.5,1.4-9.7,4.1-12.7c2.7-3,6.5-4.5,11.4-4.5
			c4.6,0,8.2,1.3,10.8,4c2.6,2.6,3.9,6.3,3.9,10.9v4.3h-21.1c0.1,2.5,0.8,4.5,2.3,5.9c1.4,1.4,3.4,2.1,5.9,2.1c2,0,3.8-0.2,5.6-0.6
			c1.8-0.4,3.6-1.1,5.5-2v6.9c-1.6,0.8-3.2,1.4-5,1.7C190.6,592.4,188.4,592.6,185.9,592.6z M184.6,565c-1.9,0-3.4,0.6-4.5,1.8
			c-1.1,1.2-1.7,2.9-1.8,5.1h12.5c0-2.2-0.6-3.9-1.7-5.1C188,565.6,186.5,565,184.6,565z"/>
		<path class="st2" d="M235.9,592H227v-19.1c0-2.4-0.4-4.1-1.3-5.3c-0.8-1.2-2.2-1.8-4-1.8c-2.5,0-4.3,0.8-5.4,2.5
			c-1.1,1.7-1.7,4.4-1.7,8.3V592h-8.9v-32.8h6.8l1.2,4.2h0.5c1-1.6,2.4-2.8,4.1-3.6c1.7-0.8,3.7-1.2,6-1.2c3.8,0,6.7,1,8.7,3.1
			c2,2.1,3,5,3,8.9V592z"/>
		<path class="st2" d="M261.4,592v-42.8h9.1V592H261.4z"/>
		<path class="st2" d="M308.5,592h-8.9v-19.1c0-2.4-0.4-4.1-1.2-5.3c-0.8-1.2-2-1.8-3.7-1.8c-2.3,0-3.9,0.8-5,2.5
			c-1,1.7-1.6,4.4-1.6,8.3V592h-8.9v-32.8h6.8l1.2,4.2h0.5c0.9-1.5,2.1-2.7,3.8-3.5c1.7-0.8,3.6-1.3,5.7-1.3c4.9,0,8.2,1.6,10,4.8
			h0.8c0.9-1.5,2.2-2.7,3.9-3.5c1.7-0.8,3.6-1.3,5.8-1.3c3.7,0,6.5,1,8.4,2.9c1.9,1.9,2.9,5,2.9,9.2V592h-9v-19.1
			c0-2.4-0.4-4.1-1.2-5.3c-0.8-1.2-2-1.8-3.7-1.8c-2.2,0-3.8,0.8-4.9,2.3c-1.1,1.6-1.6,4-1.6,7.4V592z"/>
		<path class="st2" d="M357.6,592l-1.7-4.5h-0.2c-1.5,1.9-3.1,3.2-4.6,3.9c-1.6,0.7-3.7,1.1-6.2,1.1c-3.1,0-5.6-0.9-7.4-2.7
			c-1.8-1.8-2.7-4.4-2.7-7.7c0-3.5,1.2-6,3.6-7.7c2.4-1.7,6.1-2.6,11-2.7l5.7-0.2v-1.4c0-3.3-1.7-5-5.1-5c-2.6,0-5.7,0.8-9.2,2.4
			l-3-6c3.8-2,7.9-3,12.5-3c4.4,0,7.8,1,10.1,2.9c2.3,1.9,3.5,4.8,3.5,8.7V592H357.6z M354.9,576.8l-3.5,0.1
			c-2.6,0.1-4.5,0.5-5.8,1.4c-1.3,0.9-1.9,2.2-1.9,3.9c0,2.5,1.4,3.8,4.3,3.8c2.1,0,3.7-0.6,5-1.8c1.2-1.2,1.9-2.8,1.9-4.7V576.8z"
			/>
		<path class="st2" d="M400.5,559.2v4.5l-5.1,1.3c0.9,1.5,1.4,3.1,1.4,4.9c0,3.5-1.2,6.3-3.7,8.2c-2.5,2-5.9,2.9-10.2,2.9l-1.6-0.1
			L380,581c-0.9,0.7-1.4,1.5-1.4,2.3c0,1.3,1.6,1.9,4.9,1.9h5.6c3.6,0,6.3,0.8,8.2,2.3c1.9,1.5,2.8,3.8,2.8,6.8
			c0,3.8-1.6,6.8-4.8,8.9c-3.2,2.1-7.8,3.2-13.8,3.2c-4.6,0-8.1-0.8-10.5-2.4c-2.4-1.6-3.6-3.8-3.6-6.7c0-2,0.6-3.6,1.8-5
			c1.2-1.3,3-2.3,5.4-2.8c-0.9-0.4-1.7-1-2.4-1.9c-0.7-0.9-1-1.8-1-2.8c0-1.2,0.4-2.3,1.1-3.1c0.7-0.8,1.8-1.6,3.1-2.4
			c-1.7-0.7-3.1-1.9-4.1-3.6c-1-1.6-1.5-3.6-1.5-5.8c0-3.6,1.2-6.3,3.5-8.3c2.3-2,5.6-2.9,10-2.9c0.9,0,2,0.1,3.3,0.2
			c1.3,0.2,2.1,0.3,2.4,0.4H400.5z M375.2,596.6c0,1.2,0.6,2.2,1.8,2.9c1.2,0.7,2.8,1.1,5,1.1c3.2,0,5.7-0.4,7.5-1.3
			c1.8-0.9,2.7-2.1,2.7-3.6c0-1.2-0.5-2.1-1.6-2.5c-1.1-0.5-2.7-0.7-5-0.7H381c-1.6,0-3,0.4-4.1,1.2
			C375.8,594.3,375.2,595.4,375.2,596.6z M378.5,570c0,1.8,0.4,3.2,1.2,4.2c0.8,1,2,1.6,3.7,1.6c1.7,0,2.9-0.5,3.7-1.6
			c0.8-1,1.2-2.4,1.2-4.2c0-3.9-1.6-5.9-4.9-5.9C380.1,564,378.5,566,378.5,570z"/>
		<path class="st2" d="M419.4,592.6c-5.3,0-9.4-1.5-12.4-4.4c-3-2.9-4.5-7-4.5-12.4c0-5.5,1.4-9.7,4.1-12.7c2.7-3,6.5-4.5,11.4-4.5
			c4.6,0,8.2,1.3,10.8,4c2.6,2.6,3.9,6.3,3.9,10.9v4.3h-21.1c0.1,2.5,0.8,4.5,2.3,5.9c1.4,1.4,3.4,2.1,5.9,2.1c2,0,3.8-0.2,5.6-0.6
			c1.8-0.4,3.6-1.1,5.5-2v6.9c-1.6,0.8-3.2,1.4-5,1.7C424.1,592.4,421.9,592.6,419.4,592.6z M418.1,565c-1.9,0-3.4,0.6-4.5,1.8
			c-1.1,1.2-1.7,2.9-1.8,5.1h12.5c0-2.2-0.6-3.9-1.7-5.1C421.5,565.6,420,565,418.1,565z"/>
		<path class="st2" d="M457.5,558.6c1.2,0,2.2,0.1,3,0.3l-0.7,8.4c-0.7-0.2-1.6-0.3-2.6-0.3c-2.9,0-5.1,0.7-6.7,2.2
			c-1.6,1.5-2.4,3.5-2.4,6.2V592h-8.9v-32.8h6.8l1.3,5.5h0.4c1-1.8,2.4-3.3,4.1-4.4C453.6,559.2,455.4,558.6,457.5,558.6z"/>
		<path class="st2" d="M463,559.2h9.8l6.2,18.4c0.5,1.6,0.9,3.5,1.1,5.7h0.2c0.2-2,0.6-3.9,1.3-5.7l6.1-18.4h9.6l-13.9,36.9
			c-1.3,3.4-3.1,6-5.4,7.7c-2.4,1.7-5.1,2.5-8.2,2.5c-1.5,0-3.1-0.2-4.5-0.5v-7.1c1.1,0.3,2.2,0.4,3.5,0.4c1.6,0,3-0.5,4.1-1.5
			c1.2-1,2.1-2.4,2.8-4.4l0.5-1.6L463,559.2z"/>
		<path class="st2" d="M556.1,592h-11.5l-18.6-32.4h-0.3c0.4,5.7,0.6,9.8,0.6,12.2V592h-8.1v-42.8h11.5l18.6,32.1h0.2
			c-0.3-5.6-0.4-9.5-0.4-11.8v-20.3h8.2V592z"/>
		<path class="st2" d="M580,592.6c-5.3,0-9.4-1.5-12.4-4.4c-3-2.9-4.5-7-4.5-12.4c0-5.5,1.4-9.7,4.1-12.7c2.7-3,6.5-4.5,11.4-4.5
			c4.6,0,8.2,1.3,10.8,4c2.6,2.6,3.9,6.3,3.9,10.9v4.3h-21.1c0.1,2.5,0.8,4.5,2.3,5.9c1.4,1.4,3.4,2.1,5.9,2.1c2,0,3.8-0.2,5.6-0.6
			c1.8-0.4,3.6-1.1,5.5-2v6.9c-1.6,0.8-3.2,1.4-5,1.7C584.7,592.4,582.6,592.6,580,592.6z M578.7,565c-1.9,0-3.4,0.6-4.5,1.8
			c-1.1,1.2-1.7,2.9-1.8,5.1H585c0-2.2-0.6-3.9-1.7-5.1C582.1,565.6,580.6,565,578.7,565z"/>
		<path class="st2" d="M613.6,585.5c1.6,0,3.4-0.3,5.6-1v6.7c-2.2,1-5,1.5-8.2,1.5c-3.6,0-6.2-0.9-7.8-2.7c-1.6-1.8-2.4-4.5-2.4-8.1
			V566h-4.3v-3.8l4.9-3l2.6-6.9h5.7v7h9.2v6.7h-9.2v15.8c0,1.3,0.4,2.2,1.1,2.8C611.5,585.2,612.5,585.5,613.6,585.5z"/>
		<path class="st2" d="M653.2,592l-2.5-11.5l-3.4-14.5h-0.2l-6,25.9h-9.6l-9.3-32.8h8.9l3.8,14.5c0.6,2.6,1.2,6.2,1.8,10.8h0.2
			c0.1-1.5,0.4-3.8,1-7.1l0.5-2.5l4-15.7h9.8l3.8,15.7c0.1,0.4,0.2,1.1,0.4,1.9c0.2,0.8,0.3,1.7,0.5,2.7c0.2,0.9,0.3,1.9,0.4,2.8
			s0.2,1.6,0.2,2.2h0.2c0.2-1.4,0.5-3.3,0.9-5.8c0.4-2.5,0.8-4.1,1-5l3.9-14.5h8.8L663,592H653.2z"/>
		<path class="st2" d="M705.8,575.6c0,5.3-1.4,9.5-4.2,12.5c-2.8,3-6.7,4.5-11.7,4.5c-3.1,0-5.9-0.7-8.3-2.1
			c-2.4-1.4-4.2-3.4-5.5-5.9c-1.3-2.6-1.9-5.6-1.9-9c0-5.4,1.4-9.5,4.2-12.5c2.8-3,6.7-4.5,11.8-4.5c3.1,0,5.9,0.7,8.3,2.1
			c2.4,1.4,4.2,3.3,5.5,5.9C705.2,569.1,705.8,572.1,705.8,575.6z M683.2,575.6c0,3.2,0.5,5.7,1.6,7.4c1.1,1.7,2.8,2.5,5.2,2.5
			c2.4,0,4.1-0.8,5.1-2.5c1-1.7,1.6-4.1,1.6-7.4c0-3.2-0.5-5.7-1.6-7.3c-1.1-1.6-2.8-2.4-5.2-2.4c-2.4,0-4.1,0.8-5.2,2.4
			C683.7,569.9,683.2,572.3,683.2,575.6z"/>
		<path class="st2" d="M730.4,558.6c1.2,0,2.2,0.1,3,0.3l-0.7,8.4c-0.7-0.2-1.6-0.3-2.6-0.3c-2.9,0-5.1,0.7-6.7,2.2
			c-1.6,1.5-2.4,3.5-2.4,6.2V592h-8.9v-32.8h6.8l1.3,5.5h0.4c1-1.8,2.4-3.3,4.1-4.4C726.5,559.2,728.3,558.6,730.4,558.6z"/>
		<path class="st2" d="M746.7,574.2l3.9-5l9.2-10h10.1l-13,14.2l13.8,18.5h-10.3l-9.4-13.3l-3.8,3.1V592h-8.9v-45.6h8.9v20.3
			l-0.5,7.4H746.7z"/>
	</g>
	<g>
		<g>
			<path class="st3" d="M356.6,315.1c0,0,5.4,1.2,7.6,2.7l4.4,4.4l31,37.3c0.4-1.1,0.8-2,1.2-2.9c0.2-0.7,0.5-1.3,0.7-2
				c-0.1,0.3-0.1,0.5-0.2,0.8c6.1-12.5,14.5-9.1,24.9-21.9c10.4,12.9,18.9,9.5,25,22.2c-0.2-0.7-0.3-1.3-0.5-2l0.3-0.1
				c0.7,1.8,1.4,3.7,2.1,5.6l31.4-37.6l3.3-3.3c1.8-1.8,5.1-2.6,7.5-2.7c2.8-0.2,5.4-0.8,8.1-1.3c7-1.2,13.9-2.7,20.7-4.4
				c21.5-6.2,41.2-16.7,58.1-30.5c-0.1-1.2-0.2-2.3-0.3-3.5c-16.8,13.7-36.4,24.1-57.8,30.2c-6.9,1.7-13.8,3.2-20.7,4.4
				c-2.7,0.5-5.3,1.1-8.1,1.3c-2.4,0.2-5.7,1-7.5,2.7l-3.3,3.3l-31.7,37.9c-6.2-17.4-15.2-12-26.6-26.1
				c-11.4,14.1-20.4,8.7-26.6,26.1l-31-37.3l-4.4-4.4c-2.3-1.5-7.6-2.7-7.6-2.7c-3.8-0.4-11.7-2.2-11.7-2.2c-27.7-5-53-17-73.9-34.1
				c-0.1,1.2-0.3,2.4-0.4,3.6c21.3,17.2,46.2,29.2,74,34.2C344.6,312.9,352.8,314.7,356.6,315.1z"/>
		</g>
		<g>
			<g>
				<path class="st0" d="M426.4,439.4c1.4,0,2.8,0,4.2-0.1l-8.9,0C423.3,439.3,424.8,439.4,426.4,439.4z"/>
				<g>
					<path class="st1" d="M582.8,291.7c-16.9,19.2-41.5,38.7-65.2,49.1c0,0-7.8,3.9-11.7,5.2c0,0-5.3,2.6-7.3,4.7l-3.5,5.7
						l-12.4,25.1c-0.8,0.2-1.5,0.5-2.1,0.8l-4.3,2.6l-12.6,9.3c-1-0.7-2.1-1.2-3.2-1.7c0.8,6.4-35.3,12.9-35.3,19.6
						c0-6.7-35.3-13.1-34.6-19.6c-1,0.5-2,1-3.1,1.7l-12.6-9.3l-4.2-2.6c-0.6-0.4,0.6-1.6-0.1-1.8l-14.3-24.1l-3.5-5.7
						c-2-2.1-7.3-4.7-7.3-4.7c-3.9-1.4-11.7-5.2-11.7-5.2c-25.4-11.1-47.1-27.9-64-48.4c0,0.2,0,0.4,0,0.6
						c0,22.6,4.8,44.1,13.4,63.5c14.2,11.3,38.1,28.1,50.8,33.7c0,0,7.8,3.8,11.6,5.2c0,0,5.3,2.6,7.3,4.7l3.5,5.7l3.9,8
						c5.8,5.4,14.4,13.2,21.4,18.6c12.3,3.6,25.3,5.6,38.7,6l8.9,0c14-0.4,27.5-2.6,40.3-6.4c7-5.4,15.1-13,20.8-18.2l4.3-8l3.5-5.7
						c2-2.1,7.3-4.7,7.3-4.7c3.9-1.4,11.7-5.2,11.7-5.2c11.4-5,36-20.7,51.1-31.7c9.2-19.9,14.3-42.1,14.3-65.4
						C582.8,292.5,582.8,292.1,582.8,291.7z"/>
				</g>
			</g>
			<g>
				<path class="st0" d="M524,339.3c-1.8,0.9-3.6,1.7-5.4,2.5C520.4,341,522.2,340.1,524,339.3z"/>
				<path class="st0" d="M546.1,326.6c-1,0.6-1.9,1.3-2.9,1.9C544.2,327.9,545.2,327.2,546.1,326.6z"/>
				<path class="st0" d="M550.7,323.3c-0.8,0.5-1.5,1.1-2.3,1.6C549.2,324.4,550,323.9,550.7,323.3z"/>
				<path class="st0" d="M529.4,336.6c-1.2,0.6-2.4,1.2-3.6,1.9C527,337.8,528.2,337.2,529.4,336.6z"/>
				<path class="st0" d="M541.3,329.7c-1.6,1-3.2,2-4.8,2.9C538.2,331.7,539.7,330.7,541.3,329.7z"/>
				<path class="st0" d="M582.5,293.6C582.5,293.6,582.5,293.6,582.5,293.6c-0.1,0.1-0.2,0.2-0.3,0.4
					C582.3,293.8,582.4,293.7,582.5,293.6z"/>
				<path class="st0" d="M555.1,320.1c-0.6,0.5-1.2,1-1.8,1.4C553.9,321,554.5,320.5,555.1,320.1z"/>
				<path class="st0" d="M569.4,307.7c-0.3,0.3-0.6,0.6-0.9,0.8C568.8,308.2,569.1,307.9,569.4,307.7z"/>
				<path class="st0" d="M565.6,311.2c-0.4,0.3-0.7,0.7-1.1,1C564.9,311.9,565.2,311.6,565.6,311.2z"/>
				<path class="st0" d="M534.8,333.6c-1.2,0.7-2.3,1.3-3.5,1.9C532.5,334.9,533.7,334.3,534.8,333.6z"/>
				<path class="st0" d="M391.8,393.6c0,0.2,0,0.4,0,0.6C391.8,393.9,391.9,393.7,391.8,393.6C391.9,393.5,391.8,393.6,391.8,393.6z
					"/>
				<path class="st0" d="M371.9,383.3c-0.6-0.4-1.3-0.6-2.1-0.8l-12.4-25.1l-3.5-5.7c-2-2.1-7.3-4.7-7.3-4.7
					c-3.9-1.4-11.7-5.3-11.7-5.3c-25.7-11.3-47.7-28.4-64.8-49.3c0,0,0,0.1,0,0.1c17.1,20.9,39,38,64.7,49.2c0,0,7.8,3.9,11.7,5.2
					c0,0,5.3,2.6,7.3,4.7l3.5,5.7l12.4,25.1C370.6,382.7,371.3,382.9,371.9,383.3l4.2,2.6l12.6,9.3c0,0,0,0,0,0l-12.6-9.3
					L371.9,383.3z"/>
				<path class="st4" d="M564.5,312.2c-3,2.7-6.2,5.3-9.4,7.8C558.3,317.6,561.5,314.9,564.5,312.2z"/>
				<path class="st4" d="M553.2,321.5c-0.8,0.6-1.7,1.2-2.5,1.8C551.6,322.7,552.4,322.1,553.2,321.5z"/>
				<path class="st4" d="M569.4,307.7c4.5-4.3,8.7-8.9,12.7-13.7C578.2,298.7,573.9,303.3,569.4,307.7z"/>
				<path class="st4" d="M568.6,308.5c-1,0.9-2,1.8-2.9,2.7C566.6,310.3,567.6,309.4,568.6,308.5z"/>
				<path class="st4" d="M543.2,328.5c-0.6,0.4-1.3,0.8-1.9,1.2C542,329.3,542.6,328.9,543.2,328.5z"/>
				<path class="st4" d="M536.5,332.6c-0.6,0.3-1.2,0.7-1.7,1C535.4,333.3,536,333,536.5,332.6z"/>
				<path class="st4" d="M548.5,325c-0.8,0.5-1.6,1.1-2.4,1.6C546.9,326.1,547.7,325.5,548.5,325z"/>
				<path class="st4" d="M531.3,335.6c-0.6,0.3-1.3,0.7-1.9,1C530,336.2,530.7,335.9,531.3,335.6z"/>
				<path class="st4" d="M525.7,338.4c-0.6,0.3-1.1,0.6-1.7,0.8C524.6,339,525.2,338.7,525.7,338.4z"/>
				<path class="st4" d="M388.8,395.2L388.8,395.2c1-0.6,2-1.2,3-1.6c0,0,0,0,0,0C390.8,394,389.8,394.5,388.8,395.2z"/>
				<path class="st4" d="M582.2,279.4c-16.9,13.8-36.6,24.3-58.1,30.5c-6.9,1.7-13.8,3.2-20.7,4.4c-2.7,0.5-5.3,1.1-8.1,1.3
					c-2.4,0.2-5.7,1-7.5,2.7l-3.3,3.3l-31.4,37.6c-0.7-1.9-1.4-3.7-2.1-5.6l-0.3,0.1c0.2,0.7,0.3,1.3,0.5,2
					c-6.1-12.7-14.6-9.2-25-22.2c-10.3,12.9-18.8,9.5-24.9,21.9c0.1-0.3,0.1-0.5,0.2-0.8c-0.3,0.7-0.5,1.3-0.7,2
					c-0.4,0.9-0.8,1.9-1.2,2.9l-31-37.3l-4.4-4.4c-2.3-1.5-7.6-2.7-7.6-2.7c-3.8-0.4-12-2.2-12-2.2c-27.8-5-52.7-17-74-34.2
					c-0.4,4.7-0.7,9.5-0.7,14.3c0,0.1,0,0.2,0,0.4c16.9,20,40.2,37.5,65,48.4c0,0,7.8,3.9,11.7,5.3c0,0,5.3,2.6,7.3,4.7l3.5,5.7
					l12.4,25.1c0.8,0.2,1.5,0.5,2.1,0.8l4.3,2.6l12.6,9.3c1-0.7,2-1.2,3-1.7c0,0,0,0,0,0c0,0,0.1,0,0.1,0c0,0.2,0,0.4-0.1,0.6
					c-0.7,6.2-1.1,12.6-1.1,19c0,7.5,4.5,14.9,5.5,22.2c0.1,0,0.2,0,0.3,0.1c1.3,0.3,6.9,2.1,1.3,7.6c-0.7,0.7-1.7,1.7-3.1,3.1
					c-14.3,14.5-62.5,64.6-66.3,76.7c0,0,32.8-38.2,42.7-40c9.9-1.8-9.5,18-9.5,18s34-25.4,54.1-15.4c0,0,6.7-12.5,10.6-12.5h0.4
					c3.9,0,10.6,12.5,10.6,12.5c20.1-9.9,54.1,15.5,54.1,15.5s-19.4-19.9-9.5-18c9.9,1.8,42.7,40,42.7,40
					c-3.8-12.2-52.2-62.4-66.4-76.8c-1.3-1.4-2.4-2.4-3-3.1c-5.1-5.1,0.3-7,2.2-7.4c0.2,0,0.4-0.1,0.6-0.1
					c1.3-7.3,4.5-14.7,4.5-22.3c0-6.7-0.3-13.2-1.1-19.7c1,0.5,2.1,1,3.2,1.7l12.6-9.3l4.3-2.6c0.6-0.4,1.3-0.6,2.1-0.8l12.4-25.1
					l3.5-5.7c2-2.1,7.3-4.7,7.3-4.7c3.9-1.4,11.7-5.2,11.7-5.2c1.8-0.8,3.6-1.6,5.4-2.5c0.6-0.3,1.1-0.6,1.7-0.8
					c1.2-0.6,2.4-1.2,3.6-1.9c0.6-0.3,1.3-0.7,1.9-1c1.2-0.6,2.3-1.3,3.5-1.9c0.6-0.3,1.2-0.7,1.7-1c1.6-0.9,3.2-1.9,4.8-2.9
					c0.6-0.4,1.3-0.8,1.9-1.2c1-0.6,1.9-1.3,2.9-1.9c0.8-0.5,1.6-1.1,2.4-1.6c0.8-0.5,1.5-1.1,2.3-1.6c0.8-0.6,1.7-1.2,2.5-1.8
					c0.6-0.5,1.2-0.9,1.8-1.4c3.2-2.5,6.4-5.1,9.4-7.8c0.4-0.3,0.7-0.7,1.1-1c1-0.9,2-1.8,2.9-2.7c0.3-0.3,0.6-0.6,0.9-0.8
					c4.5-4.3,8.7-8.9,12.7-13.7c0,0,0.3-0.1,0.7-0.2c0-0.3,0-0.5,0-0.8C582.8,288.4,582.6,283.8,582.2,279.4z"/>
			</g>
			<path class="st1" d="M450.8,354h-24.5h-24.2c-0.2,0-0.3,0.5-0.5,1c-6.9,27.4,0.3,46.6,24.7,65C451.1,401.3,458.2,381,450.8,354z"
				/>
			<path class="st2" d="M427,392.7c1.3-9,9.1-34.6,18.4-34.6c0.5,0,0.9,0,1.3,0.1c3.6-4.4,5.8-3.8,5.8-9.9
				c0-14.1-11.5-25.6-25.6-25.6c-14.1,0-25.6,11.5-25.6,25.6c0,6.1,2.2,5.5,5.8,9.9c0.5,0,1-0.1,1.5-0.1
				C417.9,358.1,425.6,383.7,427,392.7z"/>
		</g>
	</g>
</g>
</svg>
